<svg width="22" height="21" viewBox="0 0 22 21" fill="none" xmlns="http://www.w3.org/2000/svg">
<path d="M8.97071 9.52388C8.8688 9.59054 8.75416 9.65303 8.62678 9.71136C8.49939 9.76968 8.35078 9.79885 8.18094 9.79885H6.95806V7.84908H8.0026C8.18943 7.84908 8.35078 7.86574 8.48666 7.89907C8.62253 7.9324 8.74991 7.97406 8.8688 8.02406C9.00468 8.07405 9.10234 8.16571 9.16178 8.29902C9.22123 8.43234 9.25095 8.59066 9.25095 8.77397C9.25095 9.14059 9.15754 9.39056 8.97071 9.52388ZM8.94523 11.1487C9.09809 11.232 9.21274 11.3278 9.28917 11.4362C9.3656 11.5445 9.40381 11.707 9.40381 11.9236C9.40381 12.4069 9.24246 12.7318 8.91976 12.8985C8.71594 13.0151 8.46967 13.0735 8.18094 13.0735H6.95806V11.0987H8.62678L8.94523 11.1487ZM16.2825 0C17.0128 0 17.7007 0.137484 18.3461 0.412452C18.9915 0.687419 19.5562 1.06238 20.0403 1.53732C20.5243 2.01226 20.9065 2.56637 21.1867 3.19962C21.467 3.83288 21.6071 4.5078 21.6071 5.22439V15.6732C21.6071 16.3897 21.467 17.0688 21.1867 17.7104C20.9065 18.352 20.5243 18.9103 20.0403 19.3852C19.5562 19.8602 18.9915 20.2351 18.3461 20.5101C17.7007 20.7851 17.0128 20.9225 16.2825 20.9225H5.6078C4.87748 20.9225 4.18961 20.7851 3.5442 20.5101C2.8988 20.2351 2.33407 19.8602 1.85001 19.3852C1.36596 18.9103 0.983808 18.352 0.703566 17.7104C0.423324 17.0688 0.283203 16.3897 0.283203 15.6732V5.22439C0.283203 4.5078 0.423324 3.83288 0.703566 3.19962C0.983808 2.56637 1.36596 2.01226 1.85001 1.53732C2.33407 1.06238 2.8988 0.687419 3.5442 0.412452C4.18961 0.137484 4.87748 0 5.6078 0H16.2825ZM12.9451 7.84908H15.6201V6.52423H12.9451V7.84908ZM10.6267 13.2484C10.8475 12.8652 10.9579 12.4485 10.9579 11.9986C10.9579 11.5653 10.856 11.182 10.6522 10.8487C10.4653 10.5488 10.1851 10.3238 9.81144 10.1738C10.0492 10.0405 10.236 9.8905 10.3719 9.72386C10.5927 9.44056 10.7031 9.05727 10.7031 8.57399C10.7031 8.09072 10.5927 7.69076 10.3719 7.37413C10.0152 6.84086 9.38683 6.55756 8.48666 6.52423H4.94541V14.3733H8.25737C8.44419 14.3733 8.62253 14.365 8.79237 14.3483C8.96222 14.3316 9.12357 14.3067 9.27643 14.2733C9.59913 14.19 9.87088 14.0567 10.0917 13.8734C10.2106 13.79 10.3082 13.6984 10.3847 13.5984C10.4611 13.4984 10.5418 13.3818 10.6267 13.2484ZM16.9449 11.7486C16.9279 11.5986 16.9194 11.457 16.9194 11.3237C16.9194 11.207 16.9151 11.0904 16.9067 10.9737C16.8982 10.8571 16.8939 10.7654 16.8939 10.6987C16.86 10.4654 16.809 10.2613 16.7411 10.0863C16.6731 9.91133 16.5882 9.74052 16.4863 9.57387C16.2485 9.19059 15.9598 8.91562 15.6201 8.74897C15.2804 8.58232 14.8898 8.499 14.4482 8.499C13.7009 8.499 13.0979 8.74897 12.6393 9.24891C12.1808 9.78218 11.9515 10.5238 11.9515 11.4737C11.9515 12.4902 12.2062 13.2234 12.7158 13.6734C13.2253 14.1233 13.8197 14.3483 14.4991 14.3483C14.8898 14.3483 15.2422 14.2733 15.5564 14.1233C15.8706 13.9734 16.1466 13.765 16.3844 13.4984C16.5203 13.3151 16.6307 13.1485 16.7156 12.9985C16.8005 12.8485 16.8515 12.6568 16.8684 12.4235H15.5182C15.4842 12.6568 15.446 12.7777 15.4035 12.786C15.3611 12.7943 15.3144 12.8235 15.2634 12.8735C15.1615 12.9568 15.0511 13.0276 14.9322 13.086C14.8133 13.1443 14.6775 13.1735 14.5246 13.1735C14.2359 13.1735 13.9896 13.0985 13.7858 12.9485C13.6329 12.8485 13.514 12.7068 13.4291 12.5235C13.3442 12.3402 13.2932 12.0819 13.2762 11.7486H16.9449ZM14.4482 9.79885C14.7539 9.79885 15.0087 9.89884 15.2125 10.0988C15.3314 10.1988 15.4163 10.3071 15.4672 10.4238C15.5182 10.5404 15.5522 10.7654 15.5691 11.0987H13.3017C13.3357 10.7654 13.3824 10.5488 13.4418 10.4488C13.5013 10.3488 13.5735 10.2405 13.6584 10.1238C13.8452 9.90717 14.1085 9.79885 14.4482 9.79885Z" fill="currentColor"/>
</svg>
