<svg width="68" height="67" viewBox="0 0 68 67" fill="none" xmlns="http://www.w3.org/2000/svg">
<g clip-path="url(#clip0_918_403)">
<path d="M12.3339 5.52912C12.3339 4.1866 12.3339 3.01788 12.3339 1.84916C12.3339 0.985209 12.3137 0.0154719 13.5123 0.0104343C14.6705 0.00287787 14.7566 0.909645 14.7465 1.80886C14.7313 2.9801 14.744 4.15134 14.744 5.42585H45.1441C45.1441 4.16393 45.1593 2.91965 45.1391 1.67284C45.1239 0.811412 45.1948 -0.0197913 46.3225 0.000359072C47.359 0.0179907 47.4528 0.801337 47.4426 1.61995C47.4249 2.87179 47.4376 4.12111 47.4376 5.52912C49.6373 5.52912 51.733 5.52912 53.8313 5.52912C57.5237 5.53164 59.8171 7.77841 59.8298 11.4886C59.8526 18.1634 59.8526 24.8357 59.8171 31.5105C59.812 32.4299 60.0604 33.0092 60.8232 33.5986C67.6148 38.8578 69.8829 48.1069 66.3604 55.9101C62.8379 63.7133 54.3585 68.2346 45.9069 66.6981C40.4914 65.7133 36.2364 62.8721 33.2866 58.2299C32.7595 57.4012 32.2147 57.1519 31.272 57.1544C22.7419 57.1896 14.2092 57.099 5.67915 57.2123C2.20477 57.2627 -0.00758305 54.2603 1.9532e-05 51.5778C0.0405666 38.1047 0.0101563 24.6292 0.0228273 11.1561C0.0253615 7.83886 2.36189 5.54423 5.67661 5.53164C7.82307 5.52408 9.97207 5.53164 12.3339 5.53164V5.52912ZM31.4367 54.8598C29.1204 46.9986 30.4053 40.0316 36.5 34.4978C42.6049 28.9514 49.726 28.2436 57.3513 31.2889V22.2136H2.42017C2.39737 22.4756 2.36189 22.6746 2.36189 22.8736C2.36189 32.3996 2.34668 41.9257 2.36949 51.4518C2.37456 53.7364 3.61124 54.8547 5.96298 54.8572C14.0268 54.8598 22.0906 54.8572 30.1569 54.8572C30.5649 54.8572 30.9704 54.8572 31.4392 54.8572L31.4367 54.8598ZM49.2394 31.9412C40.0251 31.9236 32.7291 39.1148 32.7165 48.2278C32.7012 57.2904 40.0884 64.6805 49.1634 64.6831C58.2206 64.6831 65.6635 57.2652 65.6534 48.2429C65.6432 39.2206 58.3295 31.9589 49.2419 31.9412H49.2394ZM57.3513 19.7553C57.3513 16.5589 57.4324 13.4583 57.3108 10.3677C57.2626 9.18641 56.4517 8.11592 55.1745 8.04792C52.6276 7.91442 50.0655 8.00762 47.435 8.00762C47.435 9.36273 47.4122 10.6624 47.4426 11.9596C47.4629 12.7933 47.1664 13.4482 46.2972 13.4608C45.4254 13.4759 45.1087 12.8462 45.1315 11.9974C45.1669 10.67 45.1416 9.34006 45.1416 7.98746H14.7414C14.7414 9.35517 14.7287 10.6121 14.7465 11.8689C14.7592 12.7354 14.4601 13.4482 13.5301 13.4583C12.5645 13.4684 12.3263 12.7127 12.3339 11.8664C12.3441 10.5793 12.3365 9.29472 12.3365 7.93709C9.74399 7.93709 7.34411 7.85649 4.95183 7.96731C3.56056 8.0328 2.51901 9.06047 2.45819 10.5466C2.33401 13.5893 2.42017 16.6421 2.42017 19.7553H57.3513Z" fill="black"/>
<path d="M49.2051 50.0859C51.3896 50.0859 53.4068 50.0985 55.424 50.0808C56.3009 50.0733 57.1093 50.1891 57.1169 51.2747C57.1245 52.4006 56.2603 52.446 55.4114 52.4435C53.0926 52.4384 50.7712 52.4258 48.4525 52.4485C47.3425 52.4586 46.8508 52.0002 46.8635 50.8642C46.899 47.3429 46.8863 43.8216 46.8686 40.2978C46.8635 39.4817 47.0916 38.8042 47.9862 38.7941C48.9492 38.7815 49.2102 39.5019 49.2076 40.3558C49.2 43.537 49.2051 46.7182 49.2051 50.0834V50.0859Z" fill="black"/>
</g>
<defs>
<clipPath id="clip0_918_403">
<rect width="68" height="67" fill="white"/>
</clipPath>
</defs>
</svg>
