<svg width="66" height="53" viewBox="0 0 66 53" fill="none" xmlns="http://www.w3.org/2000/svg">
<g clip-path="url(#clip0_910_613)">
<path d="M33.0084 52.9955C24.2273 52.9955 15.4462 52.9955 6.66082 52.9955C2.34417 52.9955 0 50.5171 0 45.9336C0 32.9839 0 20.0341 0 7.08436C0.00422373 2.49189 2.33995 0 6.64393 0C24.2062 0 41.7727 0 59.335 0C63.6558 0 65.9958 2.4784 66 7.06187C66.0042 20.0566 66.0042 33.0513 66 46.0461C66 50.4586 63.622 52.991 59.487 52.9955C50.6636 53.0045 41.8403 52.9955 33.0127 52.9955H33.0084ZM23.315 24.2577C16.8442 32.9974 10.458 41.6245 3.86049 50.5351C4.99245 50.706 5.84142 50.9399 6.69461 50.9444C10.9986 50.9759 15.3068 50.9444 19.6108 50.9444C32.7804 50.9264 45.9542 50.9219 59.1238 50.8814C60.0403 50.8814 60.9526 50.652 62.1268 50.4991C55.4956 41.5526 49.1093 32.9344 42.685 24.2667C40.7759 26.1199 39.0188 27.8606 37.2237 29.5609C34.5755 32.0708 31.4245 32.0663 28.7847 29.5564C26.9939 27.8517 25.2283 26.1154 23.315 24.2622V24.2577ZM4.29976 2.41543C4.28709 2.54587 4.27019 2.67182 4.25752 2.80226C4.44759 2.97768 4.63766 3.1531 4.8235 3.33752C13.1358 11.4429 21.4439 19.5483 29.7604 27.6447C32.0961 29.9162 33.9503 29.9027 36.3072 27.6088C44.5561 19.5663 52.7966 11.5149 61.0413 3.46346C61.299 3.21158 61.5186 2.91921 61.9579 2.41993C60.9315 2.29398 60.1881 2.11856 59.4448 2.11856C41.798 2.10956 24.1513 2.11856 6.50032 2.14105C5.76961 2.14105 5.03469 2.32547 4.30398 2.41993L4.29976 2.41543ZM44.1718 22.7734C50.5876 31.4725 56.9105 40.0457 63.4615 48.9203C63.6601 47.8408 63.905 47.1166 63.905 46.3879C63.9262 33.0873 63.9262 19.7867 63.905 6.48612C63.905 5.71697 63.6727 4.9523 63.5038 3.91776C56.9274 10.3319 50.5876 16.5122 44.1675 22.7734H44.1718ZM2.3315 48.5335C2.45399 48.5605 2.5807 48.5875 2.70319 48.6144C9.0599 40.0233 15.4208 31.4276 21.8282 22.7689C15.3702 16.5167 8.99232 10.3409 2.36106 3.91776C2.21323 5.10074 2.03161 5.88789 2.02739 6.67054C2.0105 19.8947 2.0105 33.1143 2.02739 46.3385C2.02739 47.0716 2.22591 47.8003 2.3315 48.5335Z" fill="black"/>
</g>
<defs>
<clipPath id="clip0_910_613">
<rect width="66" height="53" fill="white"/>
</clipPath>
</defs>
</svg>
