<svg width="44" height="33" viewBox="0 0 44 33" fill="none" xmlns="http://www.w3.org/2000/svg">
<path d="M41.3067 0H2.6933C1.20692 0 0 1.18027 0 2.63382V30.3662C0 31.8197 1.20692 33 2.6933 33H41.3067C42.7931 33 44 31.8197 44 30.3662V2.63382C44 1.18027 42.7931 0 41.3067 0ZM7.48454 5.50132H16.6377C17.8527 5.50132 18.8409 6.46375 18.8409 7.6559V11.9651C18.8409 12.9354 18.1848 13.7751 17.225 14.0127C16.7633 14.1276 16.2853 14.1236 15.8115 14.1236C13.5677 14.1197 11.324 14.1117 9.08027 14.1078C8.2014 14.1078 7.16458 14.2741 6.37077 13.8147C5.70655 13.4305 5.28535 12.7176 5.28535 11.9611V7.65194C5.28535 6.46375 6.26951 5.49736 7.48859 5.49736L7.48454 5.50132ZM5.2813 24.6114V18.8922H18.7802C18.7802 18.8922 18.8207 18.8922 18.8369 18.8922V24.6153C18.8369 25.9144 17.7596 26.968 16.4311 26.968H7.68299C6.35457 26.968 5.27725 25.9144 5.27725 24.6153L5.2813 24.6114ZM38.7187 24.8094C38.7187 25.9976 37.7345 26.964 36.5155 26.964H26.528C25.313 26.964 24.3247 26.0016 24.3247 24.8094V7.6559C24.3247 6.46771 25.3089 5.50132 26.528 5.50132H36.5155C37.7305 5.50132 38.7187 6.46375 38.7187 7.6559V24.8094Z" fill="currentColor"/>
</svg>
