<svg width="22" height="21" viewBox="0 0 22 21" fill="none" xmlns="http://www.w3.org/2000/svg">
<path d="M16.2752 0.324219C16.9742 0.324219 17.6325 0.455799 18.2502 0.718961C18.8679 0.982122 19.4084 1.34098 19.8717 1.79553C20.3349 2.25008 20.7007 2.78039 20.9689 3.38646C21.2371 3.99253 21.3712 4.63847 21.3712 5.32429V15.3244C21.3712 16.0102 21.2371 16.6602 20.9689 17.2742C20.7007 17.8882 20.3349 18.4225 19.8717 18.8771C19.4084 19.3316 18.8679 19.6905 18.2502 19.9537C17.6325 20.2168 16.9742 20.3484 16.2752 20.3484H6.05887C5.3599 20.3484 4.70157 20.2168 4.08387 19.9537C3.46618 19.6905 2.9257 19.3316 2.46242 18.8771C1.99915 18.4225 1.63341 17.8882 1.3652 17.2742C1.097 16.6602 0.962891 16.0102 0.962891 15.3244V5.32429C0.962891 4.63847 1.097 3.99253 1.3652 3.38646C1.63341 2.78039 1.99915 2.25008 2.46242 1.79553C2.9257 1.34098 3.46618 0.982122 4.08387 0.718961C4.70157 0.455799 5.3599 0.324219 6.05887 0.324219H16.2752ZM14.9829 4.70227H12.8373C12.4146 4.70227 12.0245 4.77404 11.6669 4.91758C11.3093 5.06112 11.0004 5.24853 10.7403 5.47979C10.4803 5.71105 10.273 5.9782 10.1186 6.28124C9.96416 6.58427 9.88695 6.8873 9.88695 7.19034V8.4583H7.9851V10.9464H9.88695V15.9704H12.4471V10.9464H14.349V8.4583H12.4471V7.83628C12.4471 7.62894 12.5243 7.46945 12.6788 7.3578C12.8332 7.24616 12.9673 7.19034 13.0811 7.19034H14.9829V4.70227Z" fill="currentColor"/>
</svg>
