<svg width="22" height="21" viewBox="0 0 22 21" fill="none" xmlns="http://www.w3.org/2000/svg">
<path d="M14.8714 10.4738C14.8714 10.1905 14.8289 9.88217 14.744 9.54888H15.814V14.5983C15.814 14.7316 15.7673 14.8399 15.6739 14.9232C15.5805 15.0066 15.4658 15.0482 15.3299 15.0482H6.94815C6.81228 15.0482 6.70188 15.0066 6.61696 14.9232C6.53204 14.8399 6.48958 14.7316 6.48958 14.5983V9.54888H7.53412C7.44919 9.88217 7.40673 10.1905 7.40673 10.4738C7.40673 10.9737 7.50439 11.4487 7.69971 11.8986C7.89503 12.3485 8.16254 12.736 8.50223 13.061C8.84191 13.3859 9.24104 13.6442 9.69962 13.8359C10.1582 14.0275 10.6423 14.1233 11.1518 14.1233C11.6613 14.1233 12.1454 14.0275 12.604 13.8359C13.0625 13.6442 13.4574 13.3859 13.7886 13.061C14.1198 12.736 14.3831 12.3485 14.5784 11.8986C14.7737 11.4487 14.8714 10.9737 14.8714 10.4738ZM11.1518 12.7485C10.8291 12.7485 10.5234 12.6902 10.2346 12.5735C9.9459 12.4569 9.69538 12.2944 9.48307 12.0861C9.27077 11.8778 9.10517 11.6361 8.98628 11.3612C8.86739 11.0862 8.80794 10.7904 8.80794 10.4738C8.80794 10.1571 8.86739 9.85717 8.98628 9.57387C9.10517 9.29057 9.27077 9.04477 9.48307 8.83646C9.69538 8.62815 9.9459 8.46567 10.2346 8.34902C10.5234 8.23237 10.8291 8.17404 11.1518 8.17404C11.4745 8.17404 11.776 8.23237 12.0562 8.34902C12.3364 8.46567 12.5827 8.62815 12.795 8.83646C13.0073 9.04477 13.1729 9.29057 13.2918 9.57387C13.4107 9.85717 13.4702 10.1571 13.4702 10.4738C13.4702 10.7904 13.4107 11.0862 13.2918 11.3612C13.1729 11.6361 13.0073 11.8778 12.795 12.0861C12.5827 12.2944 12.3364 12.4569 12.0562 12.5735C11.776 12.6902 11.4745 12.7485 11.1518 12.7485ZM15.3299 5.89931C15.4658 5.89931 15.5805 5.94097 15.6739 6.02429C15.7673 6.10762 15.814 6.21594 15.814 6.34925V7.72409C15.814 7.85741 15.7673 7.96573 15.6739 8.04905C15.5805 8.13238 15.4658 8.17404 15.3299 8.17404H13.9287C13.7929 8.17404 13.6825 8.13238 13.5975 8.04905C13.5126 7.96573 13.4702 7.85741 13.4702 7.72409V6.34925C13.4702 6.21594 13.5126 6.10762 13.5975 6.02429C13.6825 5.94097 13.7929 5.89931 13.9287 5.89931H15.3299ZM16.5783 0C17.3086 0 18.0007 0.137484 18.6546 0.412452C19.3085 0.687419 19.8775 1.06238 20.3616 1.53732C20.8456 2.01226 21.2278 2.56637 21.508 3.19962C21.7882 3.83288 21.9284 4.5078 21.9284 5.22439V15.6732C21.9284 16.3897 21.7882 17.0688 21.508 17.7104C21.2278 18.352 20.8456 18.9103 20.3616 19.3852C19.8775 19.8602 19.3085 20.2351 18.6546 20.5101C18.0007 20.7851 17.3086 20.9225 16.5783 20.9225H5.92909C5.19876 20.9225 4.5109 20.7851 3.86549 20.5101C3.22009 20.2351 2.65536 19.8602 2.1713 19.3852C1.68725 18.9103 1.3051 18.352 1.02486 17.7104C0.744613 17.0688 0.604492 16.3897 0.604492 15.6732V5.22439C0.604492 4.5078 0.744613 3.83288 1.02486 3.19962C1.3051 2.56637 1.68725 2.01226 2.1713 1.53732C2.65536 1.06238 3.22009 0.687419 3.86549 0.412452C4.5109 0.137484 5.19876 0 5.92909 0H16.5783ZM17.2152 5.89931C17.2152 5.51602 17.0793 5.19106 16.8076 4.92442C16.5358 4.65779 16.2046 4.52447 15.814 4.52447H6.48958C6.09894 4.52447 5.76774 4.65779 5.49599 4.92442C5.22424 5.19106 5.08837 5.51602 5.08837 5.89931V15.0482C5.08837 15.4315 5.22424 15.7565 5.49599 16.0231C5.76774 16.2898 6.09894 16.4231 6.48958 16.4231H15.814C16.2046 16.4231 16.5358 16.2898 16.8076 16.0231C17.0793 15.7565 17.2152 15.4315 17.2152 15.0482V5.89931Z" fill="currentColor"/>
</svg>
