<svg width="21" height="21" viewBox="0 0 21 21" fill="none" xmlns="http://www.w3.org/2000/svg">
<path d="M0 5.78153H4.49464V20.199H0V5.78153ZM17.2439 6.67202C18.137 7.1526 18.8717 7.88054 19.448 8.85584C20.0242 9.83114 20.3123 10.8276 20.3123 11.8453V20.199H15.7745V11.8453C15.7745 11.6192 15.688 11.3648 15.5152 11.0821C15.3423 10.7994 15.1838 10.6156 15.0398 10.5308C14.8093 10.3895 14.4923 10.3188 14.089 10.3188C13.6856 10.3188 13.3687 10.3753 13.1382 10.4884L11.2798 11.3789V20.199H6.74196V5.78153H11.2798V6.46C12.173 6.06422 13.1814 5.88047 14.3051 5.90874C15.4287 5.93701 16.4083 6.19144 17.2439 6.67202ZM2.24732 0.226562C2.88118 0.226562 3.4142 0.438584 3.84638 0.862627C4.27855 1.28667 4.49464 1.80966 4.49464 2.43159C4.49464 3.05352 4.27855 3.58357 3.84638 4.02175C3.4142 4.45993 2.88118 4.67902 2.24732 4.67902C1.61346 4.67902 1.08044 4.45993 0.648266 4.02175C0.216089 3.58357 0 3.05352 0 2.43159C0 1.80966 0.216089 1.28667 0.648266 0.862627C1.08044 0.438584 1.61346 0.226562 2.24732 0.226562Z" fill="currentColor"/>
</svg>
