<svg width="36" height="93" viewBox="0 0 36 93" fill="none" xmlns="http://www.w3.org/2000/svg">
<g clip-path="url(#clip0_244_59)">
<path d="M33.7036 35.6469C27.5932 35.6469 21.4794 35.6337 15.3689 35.6304C11.0114 35.6304 6.65722 35.6469 2.29971 35.6469C1.03056 35.6469 0 36.6735 0 37.9384C0 39.2033 1.02725 40.2332 2.29639 40.2332H9.20214V60.767C9.20214 62.1081 10.289 63.1976 11.6344 63.1976H24.3656C25.7077 63.1976 26.7979 62.1114 26.7979 60.767V40.2332H33.7036C34.9728 40.2332 36 39.2067 36 37.9384C36 36.6701 34.9728 35.6436 33.7036 35.6436V35.6469Z" fill="currentColor"/>
<path d="M33.8096 65.4131H2.19034C0.980836 65.4131 0.0032959 66.3933 0.0032959 67.5986V90.8147C0.0032959 92.0233 0.98415 93.0002 2.19034 93.0002H33.8096C35.0191 93.0002 35.9967 92.02 35.9967 90.8147V67.5986C35.9967 66.3899 35.0158 65.4131 33.8096 65.4131ZM17.5957 85.7648V72.1948C17.5957 70.9861 18.5766 70.0093 19.7828 70.0093H28.6734C30.0519 70.0093 31.1686 71.1252 31.1686 72.5027V85.7648C31.1686 86.9735 30.1878 87.9503 28.9816 87.9503H19.7794C18.5699 87.9503 17.5924 86.9701 17.5924 85.7648H17.5957Z" fill="currentColor"/>
<path d="M34.2835 0H1.71318C0.767017 0 0 0.76648 0 1.71198V1.71529C0 2.66079 0.767017 3.42727 1.71318 3.42727H34.2835C35.2297 3.42727 35.9967 2.66079 35.9967 1.71529V1.71198C35.9967 0.76648 35.2297 0 34.2835 0Z" fill="currentColor"/>
<path d="M35.9967 18.1397C35.9967 17.888 35.9967 17.6364 35.9967 17.3847C35.9967 17.3649 35.9967 17.345 35.9967 17.3251V7.82809C35.9967 6.61943 35.0158 5.64258 33.8096 5.64258H2.19034C1.1896 5.64258 0.34792 6.31479 0.089452 7.22873C0.0728835 7.22873 0.056315 7.22873 0.0364329 7.22873C0.0364329 7.3082 0.0364329 7.38767 0.0364329 7.46715C0.0165507 7.58636 0.0032959 7.70556 0.0032959 7.82809V9.17251C0.0032959 9.17251 0.0198644 9.17251 0.0298055 9.16919V9.19237C0.0165507 9.33145 0.00992329 9.47715 0.00992329 9.62947C0.0032959 11.8647 0.0032959 14.0998 0.0066096 16.335V17.5834V17.5702C0.0066096 18.4344 0.0066096 19.302 0.0066096 20.1663C0.0066096 20.865 0.0066096 21.5637 0.0066096 22.2624C0.0066096 22.2822 0.0066096 22.3021 0.0066096 22.322C0.0066096 22.3419 0.0066096 22.3617 0.0066096 22.3783C0.0066096 25.1168 0.0032959 27.8553 0.0066096 30.5905C0.00992329 32.2561 0.917876 33.3157 2.33282 33.3456C3.72789 33.372 4.67892 32.2925 4.68224 30.6302C4.68224 28.6235 4.68224 26.6201 4.68224 24.6135H18.2253C18.2253 26.5241 18.2253 28.4348 18.2253 30.3454C18.2253 32.6336 18.9775 33.4018 21.2341 33.4052C25.1874 33.4118 29.1439 33.4118 33.0972 33.4052C35.1484 33.4018 35.9801 32.574 35.9834 30.5574C35.9834 28.2825 35.9834 26.0042 35.9834 23.7293H36V18.143L35.9967 18.1397ZM18.3976 18.3351C18.3976 19.2689 17.6388 20.0272 16.7043 20.0272H6.37885C5.44439 20.0272 4.68555 19.2689 4.68555 18.3351V11.9342C4.68555 11.0004 5.44439 10.2421 6.37885 10.2421H16.7043C17.6388 10.2421 18.3976 11.0004 18.3976 11.9342V18.3351Z" fill="currentColor"/>
</g>
<defs>
<clipPath id="clip0_244_59">
<rect width="36" height="93" fill="white"/>
</clipPath>
</defs>
</svg>
