<svg width="19" height="195" viewBox="0 0 19 195" fill="none" xmlns="http://www.w3.org/2000/svg">
<path d="M14.2419 178.406C14.8007 178.406 15.327 178.513 15.8208 178.726C16.3147 178.94 16.7468 179.231 17.1172 179.6C17.4875 179.969 17.7799 180.4 17.9944 180.892C18.2088 181.384 18.316 181.908 18.316 182.465V190.583C18.316 191.14 18.2088 191.667 17.9944 192.166C17.7799 192.664 17.4875 193.098 17.1172 193.467C16.7468 193.836 16.3147 194.127 15.8208 194.341C15.327 194.555 14.8007 194.662 14.2419 194.662H6.07413C5.51532 194.662 4.98899 194.555 4.49516 194.341C4.00133 194.127 3.56922 193.836 3.19885 193.467C2.82847 193.098 2.53607 192.664 2.32164 192.166C2.10721 191.667 2 191.14 2 190.583V182.465C2 181.908 2.10721 181.384 2.32164 180.892C2.53607 180.4 2.82847 179.969 3.19885 179.6C3.56922 179.231 4.00133 178.94 4.49516 178.726C4.98899 178.513 5.51532 178.406 6.07413 178.406H14.2419ZM13.2087 181.96H11.4933C11.1554 181.96 10.8435 182.018 10.5576 182.135C10.2717 182.251 10.0248 182.403 9.81687 182.591C9.60894 182.779 9.44324 182.996 9.31979 183.242C9.19633 183.488 9.1346 183.734 9.1346 183.98V185.009H7.61411V187.029H9.1346V191.107H11.1814V187.029H12.7019V185.009H11.1814V184.504C11.1814 184.336 11.2431 184.206 11.3666 184.116C11.4901 184.025 11.5973 183.98 11.6882 183.98H13.2087V181.96Z" fill="#F4F4F4"/>
<path d="M7.94548 126.359C7.86401 126.413 7.77235 126.464 7.67051 126.511C7.56867 126.559 7.44986 126.582 7.31407 126.582H6.33641V124.999H7.1715C7.32086 124.999 7.44986 125.013 7.55849 125.04C7.66712 125.067 7.76896 125.101 7.86401 125.141C7.97264 125.182 8.05071 125.256 8.09824 125.365C8.14576 125.473 8.16953 125.601 8.16953 125.75C8.16953 126.048 8.09485 126.251 7.94548 126.359ZM7.92511 127.678C8.04732 127.746 8.13898 127.823 8.20008 127.911C8.26118 127.999 8.29174 128.131 8.29174 128.307C8.29174 128.699 8.16274 128.963 7.90474 129.099C7.7418 129.193 7.54491 129.241 7.31407 129.241H6.33641V127.637H7.67051L7.92511 127.678ZM13.7911 118.627C14.375 118.627 14.9249 118.739 15.4409 118.962C15.9569 119.185 16.4084 119.49 16.7954 119.875C17.1824 120.261 17.4879 120.711 17.7119 121.225C17.936 121.739 18.048 122.287 18.048 122.869V131.351C18.048 131.933 17.936 132.484 17.7119 133.005C17.4879 133.526 17.1824 133.979 16.7954 134.365C16.4084 134.75 15.9569 135.054 15.4409 135.278C14.9249 135.501 14.375 135.613 13.7911 135.613H5.25691C4.67303 135.613 4.12309 135.501 3.6071 135.278C3.09111 135.054 2.63962 134.75 2.25263 134.365C1.86564 133.979 1.56012 133.526 1.33607 133.005C1.11202 132.484 1 131.933 1 131.351V122.869C1 122.287 1.11202 121.739 1.33607 121.225C1.56012 120.711 1.86564 120.261 2.25263 119.875C2.63962 119.49 3.09111 119.185 3.6071 118.962C4.12309 118.739 4.67303 118.627 5.25691 118.627H13.7911ZM11.1229 124.999H13.2615V123.924H11.1229V124.999ZM9.2694 129.383C9.44592 129.071 9.53418 128.733 9.53418 128.368C9.53418 128.016 9.45271 127.705 9.28977 127.435C9.1404 127.191 8.91635 127.008 8.61762 126.887C8.80772 126.778 8.95709 126.657 9.06572 126.521C9.24224 126.291 9.3305 125.98 9.3305 125.588C9.3305 125.196 9.24224 124.871 9.06572 124.614C8.78057 124.181 8.27816 123.951 7.55849 123.924H4.72734V130.296H7.37518C7.52454 130.296 7.66712 130.289 7.8029 130.276C7.93869 130.262 8.06769 130.242 8.1899 130.215C8.44789 130.147 8.66515 130.039 8.84167 129.89C8.93672 129.822 9.0148 129.748 9.0759 129.667C9.13701 129.586 9.2015 129.491 9.2694 129.383ZM14.3207 128.165C14.3071 128.043 14.3003 127.928 14.3003 127.82C14.3003 127.725 14.2969 127.631 14.2901 127.536C14.2833 127.441 14.2799 127.367 14.2799 127.313C14.2528 127.123 14.212 126.958 14.1577 126.816C14.1034 126.674 14.0355 126.535 13.954 126.4C13.7639 126.088 13.5331 125.865 13.2615 125.73C12.9899 125.595 12.6776 125.527 12.3246 125.527C11.7271 125.527 11.2451 125.73 10.8785 126.136C10.5118 126.569 10.3285 127.171 10.3285 127.942C10.3285 128.767 10.5322 129.362 10.9396 129.728C11.3469 130.093 11.8222 130.276 12.3653 130.276C12.6776 130.276 12.9594 130.215 13.2106 130.093C13.4618 129.971 13.6825 129.802 13.8726 129.586C13.9812 129.437 14.0695 129.301 14.1373 129.18C14.2052 129.058 14.246 128.902 14.2596 128.713H13.18C13.1529 128.902 13.1223 129 13.0884 129.007C13.0544 129.014 13.0171 129.038 12.9764 129.078C12.8949 129.146 12.8066 129.203 12.7116 129.251C12.6165 129.298 12.5079 129.322 12.3857 129.322C12.1549 129.322 11.958 129.261 11.795 129.139C11.6728 129.058 11.5778 128.943 11.5099 128.794C11.442 128.645 11.4012 128.436 11.3877 128.165H14.3207ZM12.3246 126.582C12.569 126.582 12.7727 126.663 12.9356 126.826C13.0307 126.907 13.0986 126.995 13.1393 127.09C13.18 127.184 13.2072 127.367 13.2208 127.637H11.408C11.4352 127.367 11.4725 127.191 11.5201 127.11C11.5676 127.029 11.6253 126.941 11.6932 126.846C11.8426 126.67 12.053 126.582 12.3246 126.582Z" fill="#F4F4F4"/>
<path d="M1 4.57597H4.59337V16.2802H1V4.57597ZM14.7861 5.29888C15.5002 5.68902 16.0876 6.27997 16.5482 7.07172C17.0089 7.86348 17.2393 8.67245 17.2393 9.49863V16.2802H13.6114V9.49863C13.6114 9.31503 13.5423 9.10849 13.404 8.87899C13.2658 8.6495 13.1392 8.50033 13.024 8.43148C12.8397 8.31673 12.5863 8.25936 12.2638 8.25936C11.9414 8.25936 11.688 8.30526 11.5037 8.39705L10.018 9.11996V16.2802H6.39006V4.57597H10.018V5.12676C10.7321 4.80547 11.5383 4.65629 12.4366 4.67924C13.3349 4.70219 14.1181 4.90874 14.7861 5.29888ZM2.79669 0.0664062C3.30344 0.0664062 3.72958 0.238527 4.0751 0.582769C4.42061 0.92701 4.59337 1.35158 4.59337 1.85646C4.59337 2.36135 4.42061 2.79165 4.0751 3.14737C3.72958 3.50309 3.30344 3.68094 2.79669 3.68094C2.28993 3.68094 1.86379 3.50309 1.51827 3.14737C1.17276 2.79165 1 2.36135 1 1.85646C1 1.35158 1.17276 0.92701 1.51827 0.582769C1.86379 0.238527 2.28993 0.0664062 2.79669 0.0664062Z" fill="#F4F4F4"/>
<path d="M11.4061 67.3513C11.4061 67.1213 11.3721 66.8711 11.3042 66.6005H12.1597V70.6996C12.1597 70.8079 12.1223 70.8958 12.0477 70.9634C11.973 71.0311 11.8813 71.0649 11.7727 71.0649H5.07163C4.963 71.0649 4.87474 71.0311 4.80684 70.9634C4.73895 70.8958 4.705 70.8079 4.705 70.6996V66.6005H5.54009C5.4722 66.8711 5.43825 67.1213 5.43825 67.3513C5.43825 67.7572 5.51633 68.1427 5.67248 68.508C5.82864 68.8733 6.0425 69.1878 6.31407 69.4516C6.58565 69.7154 6.90474 69.9251 7.27137 70.0807C7.63799 70.2363 8.02498 70.3141 8.43234 70.3141C8.8397 70.3141 9.22669 70.2363 9.59332 70.0807C9.95994 69.9251 10.2756 69.7154 10.5404 69.4516C10.8052 69.1878 11.0157 68.8733 11.1718 68.508C11.328 68.1427 11.4061 67.7572 11.4061 67.3513ZM8.43234 69.198C8.17435 69.198 7.92993 69.1506 7.6991 69.0559C7.46826 68.9612 7.26797 68.8293 7.09824 68.6602C6.92851 68.4911 6.79611 68.2949 6.70106 68.0717C6.60601 67.8485 6.55849 67.6084 6.55849 67.3513C6.55849 67.0943 6.60601 66.8508 6.70106 66.6208C6.79611 66.3908 6.92851 66.1913 7.09824 66.0221C7.26797 65.853 7.46826 65.7211 7.6991 65.6264C7.92993 65.5317 8.17435 65.4844 8.43234 65.4844C8.69034 65.4844 8.93136 65.5317 9.15541 65.6264C9.37945 65.7211 9.57634 65.853 9.74608 66.0221C9.91581 66.1913 10.0482 66.3908 10.1433 66.6208C10.2383 66.8508 10.2858 67.0943 10.2858 67.3513C10.2858 67.6084 10.2383 67.8485 10.1433 68.0717C10.0482 68.2949 9.91581 68.4911 9.74608 68.6602C9.57634 68.8293 9.37945 68.9612 9.15541 69.0559C8.93136 69.1506 8.69034 69.198 8.43234 69.198ZM11.7727 63.6377C11.8813 63.6377 11.973 63.6716 12.0477 63.7392C12.1223 63.8068 12.1597 63.8948 12.1597 64.003V65.1191C12.1597 65.2273 12.1223 65.3153 12.0477 65.3829C11.973 65.4506 11.8813 65.4844 11.7727 65.4844H10.6525C10.5438 65.4844 10.4556 65.4506 10.3877 65.3829C10.3198 65.3153 10.2858 65.2273 10.2858 65.1191V64.003C10.2858 63.8948 10.3198 63.8068 10.3877 63.7392C10.4556 63.6716 10.5438 63.6377 10.6525 63.6377H11.7727ZM12.7707 58.8486C13.3546 58.8486 13.9079 58.9602 14.4307 59.1835C14.9535 59.4067 15.4084 59.7111 15.7954 60.0966C16.1824 60.4822 16.4879 60.932 16.7119 61.4461C16.936 61.9602 17.048 62.5081 17.048 63.0898V71.5722C17.048 72.154 16.936 72.7052 16.7119 73.2261C16.4879 73.7469 16.1824 74.2002 15.7954 74.5857C15.4084 74.9713 14.9535 75.2757 14.4307 75.4989C13.9079 75.7221 13.3546 75.8337 12.7707 75.8337H4.25691C3.67303 75.8337 3.12309 75.7221 2.6071 75.4989C2.09111 75.2757 1.63962 74.9713 1.25263 74.5857C0.865639 74.2002 0.560119 73.7469 0.336072 73.2261C0.112024 72.7052 0 72.154 0 71.5722V63.0898C0 62.5081 0.112024 61.9602 0.336072 61.4461C0.560119 60.932 0.865639 60.4822 1.25263 60.0966C1.63962 59.7111 2.09111 59.4067 2.6071 59.1835C3.12309 58.9602 3.67303 58.8486 4.25691 58.8486H12.7707ZM13.2799 63.6377C13.2799 63.3266 13.1713 63.0628 12.954 62.8463C12.7368 62.6299 12.472 62.5216 12.1597 62.5216H4.705C4.39269 62.5216 4.12791 62.6299 3.91065 62.8463C3.69339 63.0628 3.58476 63.3266 3.58476 63.6377V71.0649C3.58476 71.3761 3.69339 71.6399 3.91065 71.8563C4.12791 72.0728 4.39269 72.181 4.705 72.181H12.1597C12.472 72.181 12.7368 72.0728 12.954 71.8563C13.1713 71.6399 13.2799 71.3761 13.2799 71.0649V63.6377Z" fill="#F4F4F4"/>
</svg>
