<svg width="66" height="66" viewBox="0 0 66 66" fill="none" xmlns="http://www.w3.org/2000/svg">
<g clip-path="url(#clip0_912_397)">
<path d="M0 29.5301C0.162001 23.6626 2.07549 19.4263 6.04098 16.1757C7.75725 14.7675 8.82786 14.7088 10.732 15.84C14.7585 18.2293 17.8482 21.5432 20.2618 25.5144C21.161 26.993 20.9685 28.3988 19.7265 29.6615C18.3577 31.0556 16.9819 32.4474 15.5755 33.804C14.7796 34.5715 14.6599 35.3342 15.2046 36.3106C18.5949 42.4104 23.3257 47.1608 29.416 50.5756C30.4608 51.1624 31.2802 51.1037 32.1207 50.2095C33.4073 48.8436 34.7574 47.541 36.0933 46.222C37.556 44.7786 38.7862 44.6237 40.5049 45.6822C44.4633 48.123 47.7291 51.2492 50.1333 55.265C51.0607 56.8163 50.9504 58.1588 49.8845 59.5858C45.6936 65.1881 38.3073 67.3849 31.522 65.12C15.8855 59.9003 5.9682 49.1182 0.812351 33.7031C0.286436 32.1329 0.166696 30.4266 0 29.5301ZM37.8025 63.8597C41.4863 63.8479 45.2522 61.975 48.1565 58.3067C48.6988 57.6213 48.7176 57.0651 48.2645 56.3117C46.0387 52.6105 42.9936 49.7565 39.3615 47.4776C38.6642 47.0411 38.1547 47.1702 37.61 47.7287C36.2177 49.1557 34.8114 50.571 33.3815 51.9604C31.9446 53.3592 30.442 53.554 28.6741 52.5941C22.0344 48.9961 16.9185 43.8609 13.2794 37.2541C12.2792 35.4375 12.521 33.865 14.0072 32.3535C15.3525 30.9899 16.6955 29.6216 18.076 28.2956C18.7334 27.6666 18.7616 27.1009 18.2779 26.3452C16.4442 23.4889 14.3194 20.8884 11.5185 18.9498C8.31369 16.7296 8.59073 16.1686 5.57376 19.6539C1.75148 24.071 1.34531 29.1593 3.35506 34.5902C7.7056 46.3417 15.0543 55.4199 26.5517 60.8133C29.7964 62.3341 33.0857 63.8409 37.7978 63.8597H37.8025Z" fill="black"/>
<path d="M65.8364 35.8529C65.8364 36.2049 65.8317 36.557 65.8364 36.909C65.8505 37.6718 65.5711 38.3595 64.747 38.1928C64.3268 38.1083 63.8008 37.423 63.7304 36.9489C63.4862 35.2919 63.5402 33.5927 63.2702 31.9428C61.3591 20.1913 55.0364 11.5638 44.5697 5.98493C40.2098 3.6614 35.5047 2.44096 30.5484 2.26729C30.0413 2.24851 29.5318 2.22973 29.0247 2.19688C28.2687 2.14759 27.5456 1.96218 27.6183 1.01633C27.6817 0.183149 28.3485 -0.025734 29.0764 0.00477696C30.1704 0.051717 31.2645 0.101004 32.3539 0.204272C48.2136 1.72043 61.4413 13.3709 64.8808 28.9081C65.3856 31.1847 65.6298 33.5199 65.9961 35.827C65.9421 35.8364 65.8881 35.8458 65.8341 35.8552L65.8364 35.8529Z" fill="black"/>
<path d="M55.0552 35.717C55.0552 36.3531 55.175 36.799 55.0247 37.1205C54.8275 37.5477 54.419 37.8763 54.102 38.2471C53.717 37.8927 53.0901 37.5923 52.9962 37.1722C52.7685 36.1559 52.8248 35.0786 52.7051 34.0319C51.5664 24.1698 43.9406 15.7229 34.1947 13.5918C32.563 13.2351 30.8819 13.0872 29.215 12.923C28.4355 12.8455 27.602 12.876 27.6255 11.8433C27.6466 10.8459 28.4519 10.7754 29.2525 10.7872C39.5877 10.9444 49.2021 17.5137 53.0995 27.0965C54.2546 29.9387 54.9191 32.8912 55.0552 35.717Z" fill="black"/>
<path d="M44.2722 36.2683C44.2816 36.3856 44.2934 36.5006 44.3004 36.618C44.345 37.4066 44.3145 38.2069 43.272 38.2327C42.3306 38.2562 42.2273 37.5192 42.1333 36.7705C41.9784 35.5383 41.9267 34.2498 41.5159 33.0998C39.4193 27.23 35.1814 24.1155 28.9714 23.6907C28.2201 23.6391 27.5956 23.4349 27.6261 22.5853C27.6566 21.7662 28.2576 21.4892 29.0254 21.5291C29.2203 21.5385 29.4175 21.5221 29.6123 21.5432C35.7261 22.1792 40.2786 25.1435 42.887 30.7528C43.6782 32.4544 43.9975 34.3742 44.5305 36.1932C44.446 36.219 44.3614 36.2448 44.2746 36.2683H44.2722Z" fill="black"/>
</g>
<defs>
<clipPath id="clip0_912_397">
<rect width="66" height="66" fill="white"/>
</clipPath>
</defs>
</svg>
